HIERARCHY
ROOT hip
{
  OFFSET 0 0 0
  CHANNELS 6 Xposition Yposition Zposition Zrotation Yrotation Xrotation
  JOINT abdomen
  {
    OFFSET 0 20.6881 -0.73152
    CHANNELS 3 Zrotation Xrotation Yrotation
    JOINT chest
    {
      OFFSET 0 11.7043 -0.48768
      CHANNELS 3 Zrotation Xrotation Yrotation
      JOINT neck
      {
        OFFSET 0 22.1894 -2.19456
        CHANNELS 3 Zrotation Xrotation Yrotation
        JOINT head
        {
          OFFSET -0.24384 7.07133 1.2192
          CHANNELS 3 Zrotation Xrotation Yrotation
          JOINT leftEye
          {
            OFFSET 4.14528 8.04674 8.04672
            CHANNELS 3 Zrotation Xrotation Yrotation
            End Site
            {
              OFFSET 1 0 0
            }
          }
          JOINT rightEye
          {
            OFFSET -3.6576 8.04674 8.04672
            CHANNELS 3 Zrotation Xrotation Yrotation
            End Site
            {
              OFFSET 1 0 0
            }
          }
        }
      }
      JOINT rCollar
      {
        OFFSET -2.68224 19.2634 -4.8768
        CHANNELS 3 Zrotation Xrotation Yrotation
        JOINT rShldr
        {
          OFFSET -8.77824 -1.95073 1.46304
          CHANNELS 3 Zrotation Xrotation Yrotation
          JOINT rForeArm
          {
            OFFSET -28.1742 -1.7115 0.48768
            CHANNELS 3 Zrotation Xrotation Yrotation
            JOINT rHand
            {
              OFFSET -22.5879 0.773209 7.07136
              CHANNELS 3 Zrotation Xrotation Yrotation
              JOINT rThumb1
              {
                OFFSET -1.2192 -0.487915 3.41376
                CHANNELS 3 Zrotation Xrotation Yrotation
                JOINT rThumb2
                {
                  OFFSET -3.37035 -0.52449 3.41376
                  CHANNELS 3 Zrotation Xrotation Yrotation
                  End Site
                  {
                    OFFSET -1.78271 -1.18214 1.43049
                  }
                }
              }
              JOINT rIndex1
              {
                OFFSET -7.75947 0.938293 5.60832
                CHANNELS 3 Zrotation Xrotation Yrotation
                JOINT rIndex2
                {
                  OFFSET -2.54057 -0.884171 1.56538
                  CHANNELS 3 Zrotation Xrotation Yrotation
                  End Site
                  {
                    OFFSET -1.62519 -0.234802 1.16502
                  }
                }
              }
              JOINT rMid1
              {
                OFFSET -8.24714 1.18213 3.41376
                CHANNELS 3 Zrotation Xrotation Yrotation
                JOINT rMid2
                {
                  OFFSET -3.10165 -0.590103 1.0647
                  CHANNELS 3 Zrotation Xrotation Yrotation
                  End Site
                  {
                    OFFSET -2.48547 -0.328903 0.83742
                  }
                }
              }
              JOINT rRing1
              {
                OFFSET -8.82822 0.546677 1.51678
                CHANNELS 3 Zrotation Xrotation Yrotation
                JOINT rRing2
                {
                  OFFSET -2.60934 -0.819778 -0.0198488
                  CHANNELS 3 Zrotation Xrotation Yrotation
                  End Site
                  {
                    OFFSET -2.33842 -0.294052 0.168128
                  }
                }
              }
              JOINT rPinky1
              {
                OFFSET -8.27202 -0.0477905 -0.4584
                CHANNELS 3 Zrotation Xrotation Yrotation
                JOINT rPinky2
                {
                  OFFSET -1.82734 -0.647385 -0.700984
                  CHANNELS 3 Zrotation Xrotation Yrotation
                  End Site
                  {
                    OFFSET -1.69225 -0.51767 -0.607171
                  }
                }
              }
            }
          }
        }
      }
      JOINT lCollar
      {
        OFFSET 2.68224 19.2634 -4.8768
        CHANNELS 3 Zrotation Xrotation Yrotation
        JOINT lShldr
        {
          OFFSET 8.77824 -1.95073 1.46304
          CHANNELS 3 Zrotation Xrotation Yrotation
          JOINT lForeArm
          {
            OFFSET 28.1742 -1.7115 0.48768
            CHANNELS 3 Zrotation Xrotation Yrotation
            JOINT lHand
            {
              OFFSET 22.5879 0.773209 7.07136
              CHANNELS 3 Zrotation Xrotation Yrotation
              JOINT lThumb1
              {
                OFFSET 1.2192 -0.487915 3.41376
                CHANNELS 3 Zrotation Xrotation Yrotation
                JOINT lThumb2
                {
                  OFFSET 3.37035 -0.52449 3.41376
                  CHANNELS 3 Zrotation Xrotation Yrotation
                  End Site
                  {
                    OFFSET 1.78271 -1.18214 1.43049
                  }
                }
              }
              JOINT lIndex1
              {
                OFFSET 7.75947 0.938293 5.60832
                CHANNELS 3 Zrotation Xrotation Yrotation
                JOINT lIndex2
                {
                  OFFSET 2.54057 -0.884171 1.56538
                  CHANNELS 3 Zrotation Xrotation Yrotation
                  End Site
                  {
                    OFFSET 1.62519 -0.234802 1.16502
                  }
                }
              }
              JOINT lMid1
              {
                OFFSET 8.24714 1.18213 3.41376
                CHANNELS 3 Zrotation Xrotation Yrotation
                JOINT lMid2
                {
                  OFFSET 3.10165 -0.590103 1.0647
                  CHANNELS 3 Zrotation Xrotation Yrotation
                  End Site
                  {
                    OFFSET 2.48547 -0.328903 0.83742
                  }
                }
              }
              JOINT lRing1
              {
                OFFSET 8.82822 0.546677 1.51678
                CHANNELS 3 Zrotation Xrotation Yrotation
                JOINT lRing2
                {
                  OFFSET 2.60934 -0.819778 -0.0198488
                  CHANNELS 3 Zrotation Xrotation Yrotation
                  End Site
                  {
                    OFFSET 2.33842 -0.294052 0.168128
                  }
                }
              }
              JOINT lPinky1
              {
                OFFSET 8.27202 -0.0477905 -0.4584
                CHANNELS 3 Zrotation Xrotation Yrotation
                JOINT lPinky2
                {
                  OFFSET 1.82734 -0.647385 -0.700984
                  CHANNELS 3 Zrotation Xrotation Yrotation
                  End Site
                  {
                    OFFSET 1.69225 -0.51767 -0.607171
                  }
                }
              }
            }
          }
        }
      }
    }
  }
  JOINT rButtock
  {
    OFFSET -8.77824 4.35084 1.2192
    CHANNELS 3 Zrotation Xrotation Yrotation
    JOINT rThigh
    {
      OFFSET 0 -1.70687 -2.19456
      CHANNELS 3 Zrotation Xrotation Yrotation
      JOINT rShin
      {
        OFFSET 0 -36.8199 0.73152
        CHANNELS 3 Zrotation Xrotation Yrotation
        JOINT rFoot
        {
          OFFSET 0.73152 -45.1104 -5.12064
          CHANNELS 3 Zrotation Xrotation Yrotation
          End Site
          {
            OFFSET -1.1221 -3.69964 12.103
          }
        }
      }
    }
  }
  JOINT lButtock
  {
    OFFSET 8.77824 4.35084 1.2192
    CHANNELS 3 Zrotation Xrotation Yrotation
    JOINT lThigh
    {
      OFFSET 0 -1.70687 -2.19456
      CHANNELS 3 Zrotation Xrotation Yrotation
      JOINT lShin
      {
        OFFSET 0 -36.8199 0.73152
        CHANNELS 3 Zrotation Xrotation Yrotation
        JOINT lFoot
        {
          OFFSET -0.73152 -45.1104 -5.12064
          CHANNELS 3 Zrotation Xrotation Yrotation
          End Site
          {
            OFFSET 1.1221 -3.69964 12.103
          }
        }
      }
    }
  }
}
MOTION
Frames:	4
Frame Time:	0.03333
-1.4182322192937136 67.62704253196716 3.8420415483415127 -11.590972747936917 -24.452290672057213 11.314155426160054 7.158048922343941 12.14810359457204 12.258738998747907 -1.0218831713024137 -8.691032374474059 3.386868614817886 -3.2820375907760613 12.105701780204601 -0.8353130856680775 6.565693082611769 -28.00623788024807 -0.5836227491872232 0.09447912530273028 0.06275460415531356 -0.20368101684611395 0.10493422393131574 0.0448471821728624 -0.12454214957368852 -0.12804603661790506 0.17448035731872272 -0.0052723190698680455 47.64608142349914 46.68753950556872 19.730345257301032 -28.620743169684946 -34.22454796855981 73.89201904518943 0.40205652417186183 -3.5210037117200046 -0.04876072048472103 -0.019121861633391166 -0.051946203319738614 -0.008864358243060064 0.007027357521443979 0.013016472928193128 -0.09328362875456649 -0.10411556172626625 -0.153324193210152 0.107900126856688 7.853789493561188 5.564024923375066 0.473148334704528 -0.08764669497689613 0.05157369120570847 0.15328449273560132 2.8839538888236196 0.9792077224813509 -0.0941889890053502 -0.011067948024035427 -0.03674844544707845 -0.09788525526445102 10.227725046210317 0.6112009719824719 0.1604676105866333 0.18124267148385848 0.12173158009108116 -0.056344071412859915 2.219817670113079 -0.7711684846558134 -0.29785699914357205 0.07840779690739606 -0.027336231327389313 -0.0065247516480662435 -56.931839713347365 28.278084531856454 -21.42578603950037 23.455221364566043 -18.90739283967912 -49.3729035098401 -0.5438089361849842 -6.529171634232887 0.9027595495355137 -0.003115580117730738 -0.10148006920199336 0.07397094871123809 0.019106066820935512 -0.004721314902918423 -0.040427462810482345 0.007356220457809514 -0.08074102688046944 0.04727542114450771 -8.127832904761378 5.472830798897994 -0.38209150770194433 0.009253065375942547 -0.06486705359955157 -0.24483365364738124 -2.779219341203821 0.9008123052918254 -0.011427520131239577 0.10771176304598373 -0.06798620889442598 0.2173795215155299 -10.097724348190171 0.7213172284205647 0.11442669277375253 0.10872924778890408 -0.2244178446922429 0.06686168228060685 -2.1595950384274305 -0.6500349730039315 0.2147947218015032 -0.0055065198532054365 0.21840954605887955 0.048242906768269436 -3.6708023533796665 3.5236553192218505 -2.9604490193200004 0.034393844452422336 39.84813299527104 1.893148505131587 -16.619796854554476 -13.835636725259798 -38.60114877359639 0.005160047835385961 0.14015532168610298 0.07532204550643123 68.83248811561079 -58.49397910861015 64.94460783625613 7.281857626994647 81.40342396226256 -8.087500637712454 4.913348232754271 -10.396170317747524 16.974845455537373
-1.2101495172828436 67.81206727027893 4.205340426415205 -10.919512218558594 -23.765375132134444 11.962041557618077 6.615419421090401 11.641310388346264 12.216431953255201 -0.9597664427825559 -8.81096878875219 3.279117898349292 -3.3465873607443246 12.058150003202972 -1.0395618353085223 6.5546648884231375 -28.462349375285058 -1.0918044581660689 0.088967642890206 0.06293304284738015 -0.21221629870939693 0.11285318794371084 0.05781493664236629 -0.14063941134352764 -0.11862496459663606 0.18442639341073067 -0.024376038013276365 46.95478090212922 46.14325197589416 20.752160340155157 -28.621458632000504 -35.06053580221269 75.14711411650346 0.44328098468112004 -3.926639468460365 0.016564275954338736 0.0008138597282893318 -0.04130716983123883 0.017574290177854373 0.011231392316439718 -0.011686240226480253 -0.11146740659413872 -0.0928026340266095 -0.13348196006273608 0.11742002317751062 7.83830289339183 5.558384040894282 0.491919188647604 -0.10466848688391993 0.01754841016420237 0.14144371947914952 2.8833699076495836 0.9856943744804532 -0.11379515373957758 -0.025402247255644335 -0.034853601560928815 -0.1322120784856426 10.235965669443937 0.5733980093605671 0.17346289925622882 0.1551778958787229 0.10758860619751194 -0.040031792086297625 2.195250119998778 -0.7642374434738372 -0.29242155594641706 0.11144211354986852 -0.03162607037383334 0.014425252805361149 -56.3274909152063 28.715003195325707 -21.328105796632727 23.538406238467626 -19.123868855233503 -49.80040846508579 -0.5804813957775462 -6.617888961362183 0.8603974890034782 0.01743421793901622 -0.09702193002553199 0.07644561162489834 0.00624321978821478 -0.03157473723335246 -0.0654174174362665 0.06073671014239792 -0.08218144974340166 0.03879200603023453 -8.151031642277326 5.494254114116563 -0.3254584605902547 0.003152105621534439 -0.07300698490376716 -0.26675946801762135 -2.7746900720104564 0.9226078658201593 -0.025166552368426007 0.07082996882753137 -0.11520202596625476 0.25213621976760914 -10.050464561775561 0.7039865305361565 0.10931120125053032 0.10259029510723777 -0.24760126764341156 0.0624097863239337 -2.157605532388253 -0.6484729941181142 0.19745148411666563 -0.01794312039303506 0.23815236793736005 0.08309261298693724 -3.5770595011251225 3.2469430116034776 -2.041427429700921 0.03312545697920981 39.821966540560716 1.830381414536697 -15.311417769977881 -11.557697773847906 -37.91586906397984 -0.0005111436098402511 0.12306757576490623 0.11160251627365804 67.00580866360423 -59.20283663124158 63.96567097346404 7.282140226071556 81.15959986927146 -8.2473390171218 5.460366130549544 -10.608581516972105 18.790944944519573
-0.9295608382672071 67.88355112075806 4.614811297506094 -10.206172384284342 -22.602269048562142 12.47731273615113 5.832438978038696 11.18015052973899 12.123240852219547 -0.8487980668846512 -8.914190876357655 3.187746829284035 -3.396239420915732 12.00008998016328 -1.3457086297116534 6.518401706572247 -28.856050016781055 -1.738382821841445 0.08506074800453227 0.060254114588854206 -0.20589992119186895 0.09803765386030693 0.06330934358196554 -0.10791501453464451 -0.09282493886311782 0.18635789620281623 -0.05050770144751046 46.62182967065861 45.41829911248359 21.3083187386072 -28.660382172533115 -36.008675342037186 76.63789852550713 0.40060084010500285 -4.595017874975718 -0.02376286845270905 0.013866564675595262 -0.007970350513728864 0.04951476269691986 0.0028977611162308 -0.048763175083954 -0.12529160275253876 -0.06613640156811612 -0.11356085957474762 0.1028340474832426 7.818901741054409 5.561111847694056 0.49938223753290073 -0.1276079973765251 -0.015197170903278372 0.12008107555031816 2.8724066002580666 0.9844603513965022 -0.131583554339656 -0.029825088227918493 -0.042243919603735504 -0.17051545918595676 10.25719731247892 0.5397757628409445 0.17518293298830845 0.1351338786661007 0.0750530000861562 -0.0037819237682036617 2.1678497489262143 -0.7390528818175606 -0.2861998405819172 0.1439252125819798 -0.0341725569954845 0.028446884119456856 -55.849384503494576 29.427501208784758 -21.24813964937751 23.676604871039082 -19.501453665382858 -50.50125076072621 -0.566622621786473 -6.715429185351843 0.7558228104989402 0.032547932468373494 -0.09249458182287135 0.08505357096981847 0.005448463245260327 -0.03978174312965169 -0.08103934072855504 0.1324416902356314 -0.08443957431603134 0.025492987385985013 -8.17134120977436 5.543693584650054 -0.2695697973763907 -0.01664306325363189 -0.08930984603979424 -0.2895765153528423 -2.792511743102312 0.9425972681998478 -0.058001192699381365 0.024807994117426783 -0.1773134184008235 0.26870865993244014 -10.025071625988746 0.688332857536398 0.11103582401595853 0.11204218302105116 -0.26437226354184895 0.05539838369750404 -2.170099655927499 -0.6336399576749622 0.168016143558261 -0.03670602356903032 0.25486258582435495 0.12565877878127982 -3.6302071240476956 2.726345993065106 -0.9453045844321116 0.038165069369621406 40.4640999451903 1.7637575082165713 -13.479969992157017 -8.551583817284493 -36.28494624868044 -0.004210811623312861 0.08629450428421871 0.15857767589894964 64.66490475955493 -60.03335348336928 62.72533594094641 7.3117473885762685 81.06802069287993 -8.30691192706265 6.016967210637169 -10.855033525246382 20.483332632159918
-0.5819494370371103 68.17454695701599 5.1193575374782085 -9.34752369051265 -20.603217820019275 12.433603794331281 4.3265901599337475 11.002308625451136 11.937014890725504 -0.6504946233907322 -9.028821941197979 3.059136501646811 -3.56468874787776 12.03610727520405 -1.9566893280933926 6.553908444972558 -29.27917682076876 -2.698394297660475 0.09598048625966371 0.04812935487331797 -0.17867313297375853 0.07344150232885632 0.05085710831223893 -0.05693661700378497 -0.04444706915767452 0.18976023754398172 -0.08810634536369683 46.653965710703524 44.37124135800439 21.37340873385013 -28.644244143071667 -36.90225533077161 78.16049795566471 0.29623768402132367 -5.399498472874153 -0.12926175692931444 0.02054403508463476 0.02521641808545239 0.10840953623880929 -0.011637628489496805 -0.09190985359689478 -0.13610923501566377 -0.04373722307188243 -0.08590147492225209 0.08115790854367823 7.8381457990409205 5.559651894758965 0.49546597781754464 -0.13519548377076301 -0.047343242788531824 0.10085921567860977 2.8556692216969504 0.9704411746816395 -0.1464353337823859 -0.030477851541330727 -0.03898586600878653 -0.2300191067397558 10.346595950977926 0.5351909983605735 0.1465686025124805 0.11158901597787668 0.027117878717360468 0.037754030719804155 2.1359320614913333 -0.6838070567984711 -0.25654726799139443 0.17087383067397088 -0.04309683947634085 0.060854104018757516 -55.76417106340949 30.674222468176353 -21.310395116114883 23.910748878428997 -20.117041539803182 -51.655009730419344 -0.5409373752475227 -6.854125994845884 0.6458527094369152 0.03754096083421149 -0.05691324495021883 0.09406066949436122 0.021779232107349254 -0.020473705480524785 -0.07946306113416303 0.21381474973816503 -0.10105464980232205 0.02402801853072306 -8.252770725059252 5.60601094997678 -0.24179285876497686 -0.03886406986206345 -0.10655265859949142 -0.3227617364872897 -2.838069104866297 0.983443293540405 -0.09295799414980084 -0.019521587782395586 -0.237365722244045 0.21186723869021223 -10.052534109094074 0.6528140062224804 0.12485479081077527 0.13423226701523255 -0.25308719020740117 0.010720302067452357 -2.209625747210951 -0.6230510300273268 0.13527307045086612 -0.04504557782391011 0.24118555889822751 0.1595207222520874 -4.0176483240562 0.9159339172274106 0.396377328598702 -0.1869571119003526 43.33229103807 1.902570110761385 -10.822690018205433 -4.480729600254364 -32.69422017935636 0.01298280223001908 -0.007492770880356879 0.19743408847862326 59.973964988536025 -61.05804578341127 59.334734414303696 7.015965619682043 80.73879191450696 -7.833922180812913 6.647650230010044 -11.036736193962586 21.880881543898322
